<svg width="500" height="500" viewBox="0 0 500 500" fill="none" xmlns="http://www.w3.org/2000/svg">
<path fill-rule="evenodd" clip-rule="evenodd" d="M369.28 257.54C369.26 257.08 369.45 256.733 369.85 256.5C393.71 242.24 415.887 226.23 436.38 208.47C443.407 202.377 450.33 195.45 457.15 187.69C462.67 181.41 467.26 174.997 470.92 168.45C472.57 165.5 473.77 162.11 474.64 158.85C478.85 143.09 466.8 133.86 453.01 131.62C447.277 130.693 442.023 130.327 437.25 130.52C423.63 131.08 409.807 132.877 395.78 135.91C371.81 141.1 348.14 148.34 325.83 157.56C325.715 157.611 325.587 157.624 325.462 157.599C325.337 157.574 325.221 157.512 325.13 157.42C323.977 156.253 322.713 155.157 321.34 154.13C302.953 140.37 282.447 132.337 259.82 130.03C231.06 127.103 204.557 133.46 180.31 149.1C159.43 162.567 143.76 180.563 133.3 203.09C125.24 220.437 121.073 238.327 120.8 256.76C120.8 257.147 120.64 257.447 120.32 257.66C120.32 257.66 84.14 283.457 67.82 297.59C59.18 305.077 51.2367 313.1 43.99 321.66C33.87 333.6 19.06 357.62 37.08 370.35C41.4533 373.43 46.8633 375.42 53.31 376.32C57.8233 376.947 62.27 377.17 66.65 376.99C75.51 376.64 84.52 375.74 93.52 374.14C115.18 370.28 136.783 364.673 158.33 357.32C160.623 356.54 162.92 355.787 165.22 355.06C165.533 354.96 165.82 355.013 166.08 355.22C174.433 361.793 182.71 366.973 190.91 370.76C218.23 383.367 246.403 385.88 275.43 378.3C281.963 376.587 288.217 374.357 294.19 371.61C312.463 363.19 328.007 351.373 340.82 336.16C359.43 314.07 370.28 286.29 369.28 257.54ZM311.02 200.33C314.067 197.05 316.323 193.317 317.79 189.13C317.99 188.577 317.927 188.547 317.6 189.04C313.38 195.487 310.093 199.967 307.74 202.48C303.773 206.733 297.823 211.873 289.89 217.9C278.417 226.62 266.333 234.44 253.64 241.36C244.3 246.453 234.43 250.533 224.03 253.6C223.757 253.68 223.6 253.58 223.56 253.3L223.52 252.99C223.513 252.897 223.55 252.833 223.63 252.8C230.67 249.587 237.54 246.09 244.24 242.31C244.793 241.997 245.363 241.647 245.95 241.26C247.33 240.353 247.243 240.183 245.69 240.75C243.112 241.689 240.51 242.555 237.894 243.426C232.627 245.18 227.305 246.951 222.02 249.37C215.013 252.577 207.753 254.987 200.24 256.6C200.14 256.62 200.063 256.587 200.01 256.5L199.83 256.2C199.823 256.193 199.823 256.19 199.83 256.19C205.763 253.977 211.357 251.43 216.61 248.55C219.417 247.017 219.27 246.643 216.17 247.43C211.183 248.703 205.973 249.927 200.54 251.1C183.72 254.72 166.96 257.46 150.39 254.24C149.503 254.067 149.513 253.983 150.42 253.99C166.24 254.117 181.82 251.903 197.16 247.35C209.5 243.683 222.117 238.563 235.01 231.99C247.917 225.41 259.89 217.497 270.93 208.25C282.64 198.44 293 186.01 295.88 171.3C296.227 169.56 296.293 167.833 296.08 166.12C295.993 165.427 295.81 165.4 295.53 166.04C292.29 173.533 287.537 180.473 281.27 186.86C273.017 195.267 264.037 202.483 254.33 208.51C237.137 219.183 219.557 227.017 201.59 232.01C191.637 234.777 181.923 236.363 172.45 236.77C172.39 236.773 172.33 236.759 172.277 236.729C172.224 236.699 172.18 236.654 172.15 236.6C172.05 236.4 172.107 236.277 172.32 236.23C191.587 232.17 210.267 225.3 228.36 215.62C238.19 210.36 247 203.5 255.55 196.62C256.53 195.833 258.02 195.043 260.02 194.25C263.147 193.003 266.42 190.843 269.84 187.77C279.59 178.98 288.02 169.46 290.24 156.07C290.301 155.705 290.228 155.33 290.035 155.014C289.843 154.699 289.542 154.463 289.19 154.35C288.537 154.137 288.083 154.357 287.83 155.01C286.443 158.597 284.983 161.85 283.45 164.77C278.47 174.23 271.797 182.197 263.43 188.67C262.362 189.495 261.213 190.258 260.056 191.025C258.549 192.026 257.029 193.034 255.66 194.2C254.653 195.067 253.56 195.85 252.38 196.55C239.6 204.183 226.08 210.147 211.82 214.44C211.6 214.507 211.45 214.433 211.37 214.22L211.28 213.97C211.26 213.91 211.28 213.867 211.34 213.84C219.573 210.3 227.397 206.05 234.81 201.09C242.09 196.223 249.373 191.253 256.66 186.18C268.76 177.77 278.28 166.85 282.74 153.19C283.16 151.903 282.72 151.073 281.42 150.7L279.1 150.04C277.853 149.687 277.067 150.133 276.74 151.38C276.696 151.552 276.651 151.727 276.606 151.902C276.034 154.137 275.408 156.586 274.36 158.57C270.553 165.783 266.61 171.357 262.53 175.29C259.143 178.557 255.963 181.72 252.99 184.78C250.017 187.84 247.15 190.273 244.39 192.08C228.49 202.49 210.29 210.24 192.17 215.28C178.28 219.14 163.43 220.9 149.17 219C149.01 218.98 148.933 218.89 148.94 218.73L148.95 218.72C148.957 218.593 149.02 218.53 149.14 218.53C157.967 218.503 166.247 217.75 173.98 216.27C184.233 214.31 195.107 211.02 206.6 206.4C217.407 202.053 227.363 196.317 236.47 189.19C238.317 187.743 238.19 187.54 236.09 188.58C229.77 191.72 223.44 194.79 216.76 197.29C213.833 198.377 210.883 199.423 207.91 200.43C199.757 203.183 191.41 205.037 182.87 205.99C182.597 206.023 182.453 205.9 182.44 205.62C182.427 205.427 182.517 205.307 182.71 205.26C192.597 203.113 202.39 199.66 212.09 194.9C222 190.05 230.38 183.79 238.43 176.33C240.277 174.617 242.56 172.85 245.28 171.03C253.047 165.843 258.957 158.507 263.01 149.02C264.05 146.587 263.13 145.267 260.25 145.06C260.13 145.047 259.907 145.03 259.58 145.01C256.747 144.803 254.713 145.98 253.48 148.54C251.107 153.46 248.633 157.503 246.06 160.67C242.373 165.223 238.26 169.61 233.72 173.83C232.82 174.663 232.907 174.787 233.98 174.2C235.147 173.567 236.257 172.923 237.31 172.27C237.863 171.93 238.44 171.8 239.04 171.88C239.46 171.933 239.52 172.107 239.22 172.4C238.447 173.16 237.623 173.81 236.75 174.35C224.36 182 211.66 189.09 197.62 193.5C189.3 196.12 180.783 197.423 172.07 197.41C171.923 197.41 171.843 197.333 171.83 197.18L171.8 196.9C171.8 196.86 171.82 196.837 171.86 196.83C180.84 195.53 189.477 193.077 197.77 189.47C198.263 189.257 198.703 188.983 199.09 188.65C199.863 187.997 199.75 187.75 198.75 187.91C196.09 188.337 193.397 188.507 190.67 188.42C180.15 188.073 170.58 187.24 161.96 185.92C161.854 185.905 161.753 185.866 161.663 185.808C161.573 185.75 161.497 185.672 161.439 185.581C161.381 185.491 161.343 185.388 161.328 185.281C161.313 185.174 161.32 185.064 161.35 184.96L161.48 184.53C161.793 183.477 162.497 183.023 163.59 183.17C178.17 185.177 192.017 182.863 205.13 176.23C217.37 170.04 232.44 158.21 235.41 144.49C235.49 144.11 235.723 143.903 236.11 143.87C236.236 143.859 236.37 143.847 236.511 143.834C238.447 143.66 241.727 143.365 243.19 144.39C243.383 144.523 243.597 144.573 243.83 144.54C244.903 144.38 245.987 144.283 247.08 144.25C247.899 144.226 248.66 144.07 249.422 143.914C250.548 143.683 251.673 143.453 252.98 143.65C256.62 144.197 260.333 144.64 264.12 144.98C268.34 145.35 272.47 146.44 276.48 147.79C278.193 148.37 279.893 148.947 281.58 149.52C284.447 150.5 287.253 151.483 290 152.47C292.94 153.53 295.653 154.747 298.14 156.12C305.747 160.333 311.857 164.303 316.47 168.03C322.363 172.79 327.84 178.673 332.9 185.68C333.127 186 333.19 186.353 333.09 186.74C332.657 188.347 332.12 189.95 331.48 191.55C324.79 208.06 312.03 222.28 297.74 233.3C276.047 250.033 251.207 262.52 223.22 270.76C217.727 272.38 211.967 273.647 205.94 274.56C205.88 274.567 205.86 274.543 205.88 274.49L206.01 274.16C206.037 274.087 206.083 274.04 206.15 274.02C220.257 270.027 233.777 264.763 246.71 258.23C246.77 258.2 246.822 258.158 246.864 258.106C246.906 258.054 246.936 257.994 246.952 257.929C246.968 257.865 246.97 257.797 246.958 257.732C246.945 257.666 246.919 257.604 246.88 257.55L246.67 257.26C246.343 256.807 245.923 256.687 245.41 256.9C231.163 262.913 216.37 267.657 201.03 271.13C192.43 273.077 183.897 274.227 175.43 274.58C175.33 274.587 175.267 274.547 175.24 274.46C175.227 274.427 175.223 274.393 175.23 274.36C175.243 274.307 175.277 274.277 175.33 274.27C212.57 267.77 246.52 253.807 277.18 232.38C288.28 224.62 298.15 215.533 306.79 205.12C308.043 203.613 309.453 202.017 311.02 200.33ZM170.14 175.64L171.05 174.73C171.333 174.448 171.674 174.229 172.05 174.089C172.426 173.95 172.828 173.892 173.23 173.92C191.2 175.17 210.58 166.23 219.89 151.43C220.803 149.977 221.437 148.437 221.79 146.81C221.903 146.29 222.223 145.987 222.75 145.9L226.24 145.32C226.305 145.308 226.372 145.314 226.434 145.337C226.495 145.36 226.55 145.398 226.592 145.449C226.634 145.5 226.661 145.562 226.671 145.627C226.682 145.692 226.674 145.759 226.65 145.82C223.563 153.447 218.867 159.703 212.56 164.59C200.28 174.103 186.283 178.187 170.57 176.84C169.57 176.753 169.427 176.353 170.14 175.64ZM184.99 164.31C189.04 163.64 192.77 162.72 196.38 160.58C200.187 158.313 203.477 155.657 206.25 152.61C207.917 150.783 210.093 149.69 212.78 149.33C213.3 149.263 213.41 149.443 213.11 149.87C207.283 158.23 199.147 163.783 188.7 166.53C186.293 167.163 183.81 167.49 181.25 167.51C180.317 167.517 180.177 167.187 180.83 166.52C182.023 165.307 183.41 164.57 184.99 164.31ZM121.29 339.04C130.963 337.593 140.803 335.6 150.81 333.06C168.99 328.44 187.79 322.413 207.21 314.98C257.563 295.707 305.427 271.57 350.8 242.57C368.72 231.11 386.76 217.95 401.28 202.46C405.093 198.4 408.397 193.973 411.19 189.18C415.65 181.55 416.51 172.17 407.26 167.89C399.32 164.22 388.4 164.84 379.6 166.1C366.707 167.933 354.23 170.933 342.17 175.1C341.997 175.153 341.857 175.11 341.75 174.97C340.817 173.757 339.83 172.573 338.79 171.42C338.768 171.396 338.753 171.366 338.745 171.335C338.741 171.318 338.739 171.3 338.74 171.283C338.74 171.268 338.742 171.253 338.746 171.239C338.754 171.207 338.769 171.178 338.791 171.154C338.812 171.13 338.84 171.111 338.87 171.1C351.263 166.82 363.88 163.353 376.72 160.7C384.64 159.067 392.227 158.027 399.48 157.58C405.153 157.227 410.41 157.527 415.25 158.48C424.38 160.28 430.2 166.5 428.31 176.02C426.96 182.84 422.14 189.63 417.64 194.91C412.83 200.56 407.47 205.93 401.99 210.63C386.797 223.67 370.21 235.84 352.23 247.14C296.1 282.44 235.58 311.78 172.49 332.09C154.41 337.903 136.503 342.47 118.77 345.79C111.983 347.057 104.58 347.88 96.56 348.26C87.72 348.68 71.52 347.79 69.85 336.27C68.69 328.26 74.12 319.26 79.21 313.62C88.2567 303.58 99.05 294.037 111.59 284.99C114.79 282.677 118 280.343 121.22 277.99C121.243 277.972 121.271 277.961 121.3 277.957C121.329 277.954 121.359 277.958 121.386 277.969C121.413 277.98 121.437 277.998 121.455 278.021C121.474 278.044 121.486 278.071 121.49 278.1L122.01 282.43C122.023 282.57 121.97 282.68 121.85 282.76C110.31 290.573 100.53 298.89 92.51 307.71C89.5967 310.91 87.08 314.567 84.96 318.68C80.78 326.78 82.87 334.41 91.44 337.88C100.47 341.55 111.71 340.48 121.29 339.04ZM350.48 204.61C353.09 201.15 354.06 197.53 351.73 193.69C351.684 193.614 351.658 193.528 351.654 193.44C351.65 193.351 351.669 193.263 351.707 193.184C351.746 193.104 351.804 193.036 351.876 192.984C351.948 192.933 352.032 192.901 352.12 192.89C355 192.54 360.17 192.33 362.4 194.79C371.35 204.62 335.04 230.88 327.79 235.92C295.39 258.43 259.79 276.71 223.14 291.24C207.753 297.347 192.29 302.447 176.75 306.54C173.59 307.38 167.417 308.64 158.23 310.32C148.777 312.047 140.043 312.727 132.03 312.36C126.88 312.13 117.21 309.89 121.27 302.52C122.297 300.66 123.7 298.993 125.48 297.52C125.539 297.47 125.609 297.435 125.684 297.418C125.759 297.401 125.837 297.403 125.912 297.422C125.987 297.442 126.055 297.479 126.112 297.531C126.169 297.583 126.213 297.648 126.24 297.72C127.373 300.627 129.38 302.473 132.26 303.26C135.673 304.193 139.667 304.533 144.24 304.28C152.027 303.847 159.697 302.83 167.25 301.23C177.783 299.003 188.2 296.177 198.5 292.75C221.68 285.043 245.327 274.923 269.44 262.39C287.973 252.757 304.447 242.893 318.86 232.8C330.15 224.89 342.05 215.77 350.48 204.61ZM335.37 311.67C338.93 307.03 341.827 302.163 344.06 297.07C344.407 296.283 344.303 296.22 343.75 296.88C341.35 299.747 338.91 302.613 336.43 305.48C312.03 333.75 275.48 352.02 239.08 358.14C238.06 358.307 237.023 358.32 235.97 358.18C235.577 358.127 235.573 358.067 235.96 358C239.8 357.333 243.663 356.44 247.55 355.32C264.563 350.4 280.457 343.457 295.23 334.49C306.77 327.49 317.023 319.3 325.99 309.92C329.93 305.8 333.37 301.1 336.32 296.12C336.753 295.38 336.64 295.283 335.98 295.83C333.11 298.182 330.501 300.747 327.913 303.293C325.405 305.759 322.917 308.206 320.23 310.42C305.783 322.293 289.617 330.99 271.73 336.51C271.61 336.55 271.527 336.51 271.48 336.39L271.39 336.16C271.37 336.12 271.38 336.093 271.42 336.08C284.047 329.82 296.033 321.93 307.38 312.41C308.536 311.443 309.567 310.368 310.602 309.289C311.375 308.483 312.15 307.676 312.98 306.91C313.227 306.683 313.513 306.547 313.84 306.5C314.967 306.34 316.117 306.227 317.29 306.16C319.81 306.02 322.28 304.54 324.29 303.09C334.07 296.057 340.737 286.83 344.29 275.41C344.477 274.817 344.563 274.207 344.55 273.58C344.543 273.187 344.693 272.867 345 272.62C347.433 270.693 350.607 268.657 354.52 266.51C354.98 266.263 355.197 266.4 355.17 266.92C354.157 283.84 349.027 298.827 339.78 311.88C329 327.093 314.583 339.58 296.53 349.34C296.39 349.413 296.253 349.403 296.12 349.31L295.87 349.13C295.837 349.103 295.86 349.06 295.94 349C311.08 338.647 324.223 326.203 335.37 311.67ZM332.31 287.33C328.303 292.737 323.79 297.677 318.77 302.15C317.25 303.503 315.66 304.66 314 305.62C311.807 306.9 310.163 307.957 309.07 308.79C304.25 312.463 299.297 315.717 294.21 318.55C278.423 327.337 261.843 333.73 244.47 337.73C244.439 337.737 244.407 337.738 244.376 337.734C244.337 337.73 244.299 337.717 244.265 337.696C244.204 337.659 244.159 337.599 244.14 337.53L244.07 337.26C244.037 337.14 244.08 337.063 244.2 337.03C279.41 327.11 311.38 308.26 333.45 279.32C335.216 277.011 337.7 275.958 340.218 274.891C341.266 274.447 342.32 274 343.33 273.46C343.455 273.394 343.6 273.378 343.737 273.413C343.873 273.448 343.992 273.532 344.07 273.65L344.23 273.89C344.263 273.943 344.257 273.993 344.21 274.04C342.93 275.213 341.597 276.363 340.21 277.49C337.911 279.378 335.89 282.262 334.024 284.926C333.439 285.762 332.869 286.575 332.31 287.33ZM314.12 288.45C315.98 287.243 316.203 287.493 314.79 289.2C311.81 292.807 308.52 296.113 304.92 299.12C294.14 308.12 282.237 315.43 269.21 321.05C269.03 321.13 268.893 321.083 268.8 320.91L268.69 320.69C268.67 320.65 268.677 320.62 268.71 320.6C278.277 314.667 286.613 308.217 293.72 301.25C295.47 299.53 297.79 297.55 300.01 296.43C305.337 293.75 310.04 291.09 314.12 288.45ZM204.115 184.438C204.332 184.49 204.56 184.477 204.77 184.4C213.317 181.26 220.353 178 225.88 174.62C231.62 171.113 237.477 165.27 243.45 157.09C246.037 153.543 247.89 150.037 249.01 146.57C249.33 145.577 248.97 145.08 247.93 145.08H244.47C243.19 145.073 242.31 145.667 241.83 146.86C238.923 154.107 234.61 160.32 228.89 165.5C221.177 172.493 212.697 178.437 203.45 183.33C203.17 183.477 203.14 183.667 203.36 183.9L203.55 184.11C203.701 184.273 203.898 184.387 204.115 184.438Z" fill="#232323"/>
</svg>
