<?xml version="1.0" standalone="no"?>
<!DOCTYPE svg PUBLIC "-//W3C//DTD SVG 20010904//EN"
 "http://www.w3.org/TR/2001/REC-SVG-20010904/DTD/svg10.dtd">
<svg version="1.0" xmlns="http://www.w3.org/2000/svg"
 width="700.000000pt" height="700.000000pt" viewBox="0 0 700.000000 700.000000"
 preserveAspectRatio="xMidYMid meet">
<metadata>
Created by potrace 1.14, written by Peter Selinger 2001-2017
</metadata>
<g transform="translate(0.000000,700.000000) scale(0.100000,-0.100000)"
fill="#000000" stroke="none">
<path d="M3197 5175 c-472 -77 -900 -347 -1179 -745 -118 -169 -237 -442 -287
-660 -22 -98 -41 -242 -41 -317 l0 -51 -107 -78 c-342 -248 -574 -430 -718
-563 -126 -116 -271 -278 -335 -374 -157 -236 -173 -428 -45 -546 86 -79 180
-110 355 -118 145 -6 319 8 510 43 207 37 553 126 771 197 l196 64 64 -47
c409 -296 897 -402 1386 -300 444 93 865 381 1125 770 173 259 264 527 275
808 l6 142 106 66 c737 461 1283 980 1366 1301 50 190 -42 326 -260 384 -146
39 -449 26 -753 -32 -277 -53 -618 -150 -899 -255 l-173 -64 -80 59 c-198 147
-435 251 -687 302 -141 28 -463 36 -596 14z m393 -195 l35 -1 -31 -13 c-22
-10 -42 -34 -72 -88 -47 -86 -89 -141 -193 -253 -66 -70 -70 -77 -36 -57 21
12 40 22 43 22 28 0 -138 -101 -294 -179 -203 -102 -373 -154 -534 -165 l-83
-6 65 15 c100 23 196 54 259 83 l56 26 -185 7 c-162 6 -348 24 -358 34 -2 2
-1 9 3 15 5 8 34 10 99 5 178 -13 352 26 529 118 183 95 341 249 389 380 l21
57 49 0 c27 0 48 -3 46 -7 -48 -110 -101 -187 -183 -269 -83 -83 -271 -220
-347 -255 -30 -13 -35 -24 -15 -32 17 -6 185 64 274 115 129 74 268 219 334
349 37 73 37 89 2 90 -22 2 -19 3 12 9 22 4 49 6 60 4 11 -2 36 -4 55 -4z
m175 -25 c104 -22 315 -98 410 -149 207 -109 339 -218 459 -378 26 -35 27 -40
16 -75 -7 -21 -30 -72 -50 -113 -180 -359 -636 -711 -1207 -934 -135 -53 -348
-118 -423 -130 l-35 -6 30 11 c17 7 86 32 155 56 157 57 342 143 337 157 -6
16 -18 13 -171 -44 -186 -69 -383 -125 -544 -155 -169 -32 -231 -31 -93 0 552
128 1112 410 1470 741 94 86 279 302 307 356 41 81 27 74 -38 -16 -76 -108
-188 -215 -352 -337 -256 -191 -545 -358 -746 -432 -153 -56 -153 -52 -1 27
80 42 152 83 160 92 15 15 14 16 -4 10 -11 -4 -69 -25 -130 -46 -60 -20 -159
-58 -220 -83 -97 -40 -235 -87 -254 -87 -3 0 45 25 107 55 61 29 112 58 112
63 0 5 -35 1 -77 -9 -314 -76 -474 -99 -668 -97 l-150 1 122 12 c353 37 624
117 963 286 490 244 811 545 884 826 17 67 21 123 8 123 -5 0 -18 -19 -28 -42
-52 -116 -173 -258 -335 -393 -281 -235 -726 -447 -1090 -519 -137 -27 -287
-44 -214 -24 282 76 433 132 640 235 152 76 233 127 370 233 55 42 134 94 175
116 87 45 250 200 315 299 42 64 100 218 91 241 -12 32 -36 9 -79 -81 -55
-114 -108 -194 -182 -273 -52 -57 -80 -80 -223 -185 -79 -58 -288 -164 -434
-221 -166 -65 -175 -64 -50 4 134 71 499 315 595 397 89 76 178 188 227 288
43 86 50 129 24 139 -27 10 -64 7 -69 -6 -57 -164 -124 -265 -282 -419 -137
-135 -230 -199 -432 -298 -206 -100 -399 -169 -601 -212 -70 -15 -142 -21
-270 -24 -96 -1 -155 -1 -130 1 238 20 395 52 605 124 134 46 311 128 400 185
84 53 167 116 162 121 -3 3 -62 -22 -133 -54 -160 -74 -329 -133 -456 -161
-133 -29 -151 -25 -43 8 113 35 171 59 287 117 115 58 183 104 300 202 50 42
125 103 167 134 89 68 157 147 206 239 37 70 43 104 23 112 -27 11 13 7 87 -8z
m-624 -53 c-61 -120 -173 -224 -316 -293 -129 -62 -241 -84 -404 -80 -37 1
-42 3 -31 16 9 11 32 15 82 15 250 0 531 154 620 340 24 49 34 60 61 60 15 0
14 -7 -12 -58z m-171 -10 c0 -15 -115 -120 -165 -151 -60 -38 -191 -81 -243
-81 -34 1 -36 2 -18 15 10 8 42 19 70 25 78 16 170 64 229 118 77 72 127 101
127 74z m2871 -121 c127 -39 180 -142 141 -268 -30 -97 -102 -195 -251 -344
-255 -254 -615 -513 -1144 -823 -948 -555 -2016 -989 -2842 -1156 -288 -58
-537 -66 -643 -20 -130 56 -155 160 -76 319 61 125 297 353 559 543 120 87
115 84 115 50 0 -25 -15 -39 -113 -112 -152 -114 -321 -284 -378 -379 -53 -90
-64 -171 -31 -231 45 -82 183 -126 362 -116 665 37 1968 531 2997 1137 493
290 765 483 992 704 234 227 317 389 258 503 -53 99 -235 134 -496 97 -122
-18 -335 -68 -433 -101 l-66 -22 -22 23 c-12 13 -18 25 -13 28 19 12 213 69
340 101 124 32 308 68 403 80 63 7 304 -1 341 -13z m-804 -481 c147 -52 -36
-296 -433 -577 -800 -567 -1977 -1049 -2635 -1080 -243 -11 -330 43 -249 155
35 49 43 51 58 17 23 -51 61 -60 242 -59 181 1 297 20 552 90 425 116 988 358
1453 624 188 108 494 310 615 406 188 151 322 316 305 376 -18 61 -19 58 23
58 21 0 53 -5 69 -10z m-2440 -166 c-3 -3 -12 -4 -19 -1 -8 3 -5 6 6 6 11 1
17 -2 13 -5z m2363 -945 c-27 -217 -105 -408 -240 -587 -112 -150 -330 -340
-505 -442 -46 -27 -39 -17 25 30 162 122 341 300 459 458 52 69 126 200 118
208 -2 3 -37 -34 -77 -81 -274 -322 -631 -556 -1062 -693 -183 -59 -227 -61
-68 -4 398 144 699 328 935 573 88 92 173 205 161 216 -3 3 -52 -38 -108 -92
-164 -157 -346 -283 -528 -368 -99 -46 -211 -89 -216 -84 -2 2 20 17 48 32
137 74 337 216 438 311 46 43 63 52 101 56 55 6 119 47 200 128 74 73 126 155
165 260 31 82 34 86 96 127 34 22 64 40 65 39 2 -2 -2 -40 -7 -87z m-2433 -15
c-3 -3 -12 -4 -19 -1 -8 3 -5 6 6 6 11 1 17 -2 13 -5z m2232 -51 c-31 -32 -81
-92 -112 -133 -93 -126 -185 -210 -355 -323 -222 -149 -470 -268 -698 -336
-108 -32 -101 -24 16 18 424 155 753 379 1017 694 47 56 81 86 122 107 31 16
58 29 61 30 2 0 -21 -26 -51 -57z m-409 -219 c-87 -88 -247 -208 -379 -282
-96 -55 -216 -112 -167 -79 70 46 223 165 287 224 47 43 112 90 170 121 52 28
103 58 114 66 47 36 35 11 -25 -50z m-883 -880 c-3 -3 -12 -4 -19 -1 -8 3 -5
6 6 6 11 1 17 -2 13 -5z m-40 -10 c-3 -3 -12 -4 -19 -1 -8 3 -5 6 6 6 11 1 17
-2 13 -5z"/>
</g>
</svg>
